<svg width="50" height="46" viewBox="0 0 50 46" fill="none" xmlns="http://www.w3.org/2000/svg">
<path d="M15.3358 38H33.5278C35.1598 38 36.5518 36.656 36.5518 34.976C36.5518 33.344 35.1598 32 33.5278 32H22.8718C31.4638 25.952 35.9758 21.2 35.9758 15.728C35.9758 9.344 30.5518 5.504 23.7358 5.504C20.2318 5.504 16.5838 6.512 13.6078 8.768C12.8878 9.296 12.3598 10.208 12.3598 11.216C12.3598 12.896 13.7038 14.24 15.3838 14.24C16.0078 14.24 16.5838 14.048 17.0638 13.712C18.9838 12.368 21.1918 11.552 23.8318 11.552C26.5198 11.552 29.0638 12.944 29.0638 15.728C29.0638 19.568 25.4638 22.736 13.2718 31.616C12.4078 32.24 11.7838 33.296 11.7838 34.448C11.7838 36.416 13.4158 38 15.3358 38Z" fill="#004a82"/>
<path fill-rule="evenodd" clip-rule="evenodd" d="M0.204911 12.0226C0.069629 11.7038 0 11.3621 0 11.017V5.25551C0 3.86166 0.567225 2.5249 1.57689 1.5393C2.58656 0.553703 3.95596 0 5.38384 0H11.7475C12.4614 0 13.1461 0.276851 13.6509 0.769651C14.1558 1.26245 14.4394 1.93083 14.4394 2.62775C14.4394 3.32468 14.1558 3.99306 13.6509 4.48585C13.1461 4.97865 12.4614 5.25551 11.7475 5.25551H6.08677C5.90034 5.25551 5.72155 5.3278 5.58973 5.45648C5.4579 5.58516 5.38384 5.75969 5.38384 5.94167V11.017C5.38384 11.3621 5.31422 11.7038 5.17893 12.0226C5.04365 12.3414 4.84537 12.6311 4.5954 12.8751C4.34543 13.1191 4.04868 13.3127 3.72208 13.4447C3.39548 13.5768 3.04543 13.6448 2.69192 13.6448C2.33841 13.6448 1.98837 13.5768 1.66177 13.4447C1.33517 13.3127 1.03841 13.1191 0.788446 12.8751C0.538478 12.6311 0.340192 12.3414 0.204911 12.0226ZM49.7951 12.0226C49.9303 11.7038 50 11.3621 50 11.017H49.996V5.25551C49.9963 4.56543 49.8573 3.88207 49.5869 3.24445C49.3166 2.60684 48.9202 2.02746 48.4204 1.53942C47.9206 1.05137 47.3273 0.664226 46.6742 0.400089C46.0211 0.135951 45.3211 0 44.6142 0H38.2525C37.5386 0 36.8539 0.276851 36.349 0.769651C35.8442 1.26245 35.5606 1.93083 35.5606 2.62775C35.5606 3.32468 35.8442 3.99306 36.349 4.48585C36.8539 4.97865 37.5386 5.25551 38.2525 5.25551H43.9093C44.0017 5.25525 44.0934 5.27281 44.1789 5.30718C44.2644 5.34156 44.3421 5.39206 44.4076 5.4558C44.4731 5.51954 44.525 5.59527 44.5605 5.67864C44.5959 5.76202 44.6142 5.8514 44.6142 5.94167V11.017C44.6139 11.3623 44.6834 11.7043 44.8187 12.0233C44.954 12.3424 45.1525 12.6323 45.4027 12.8764C45.6529 13.1204 45.95 13.3139 46.277 13.4458C46.6039 13.5777 46.9543 13.6453 47.308 13.6448C47.6616 13.6448 48.0116 13.5768 48.3382 13.4447C48.6648 13.3127 48.9616 13.1191 49.2115 12.8751C49.4615 12.6311 49.6598 12.3414 49.7951 12.0226ZM0 34.9866C0 34.2897 0.283613 33.6213 0.788446 33.1285C1.29328 32.6357 1.97798 32.3589 2.69192 32.3589C3.04543 32.3589 3.39548 32.4268 3.72208 32.5589C4.04868 32.691 4.34543 32.8845 4.5954 33.1285C4.84537 33.3725 5.04365 33.6622 5.17893 33.981C5.31422 34.2998 5.38384 34.6415 5.38384 34.9866V40.0581C5.38384 40.2401 5.4579 40.4146 5.58973 40.5433C5.72155 40.672 5.90034 40.7443 6.08677 40.7443H11.7475C12.4614 40.7443 13.1461 41.0212 13.6509 41.514C14.1558 42.0068 14.4394 42.6751 14.4394 43.3721C14.4394 44.069 14.1558 44.7374 13.6509 45.2302C13.1461 45.723 12.4614 45.9998 11.7475 45.9998H5.38384C3.95596 45.9998 2.58656 45.4461 1.57689 44.4605C0.567225 43.4749 0 42.1382 0 40.7443V34.9943V34.9866ZM47.308 32.3589C48.022 32.3589 48.7067 32.6357 49.2115 33.1285C49.7164 33.6213 50 34.2897 50 34.9866L49.996 34.9943V40.7443C49.996 42.1378 49.4291 43.4743 48.4198 44.4598C47.4106 45.4454 46.0417 45.9993 44.6142 45.9998H38.2525C37.5386 45.9998 36.8539 45.7229 36.349 45.2302C35.8442 44.7374 35.5606 44.069 35.5606 43.3721C35.5606 42.6751 35.8442 42.0068 36.349 41.514C36.8539 41.0212 37.5386 40.7443 38.2525 40.7443H43.9093C44.0018 40.7446 44.0934 40.727 44.1789 40.6926C44.2644 40.6583 44.3421 40.6077 44.4076 40.544C44.4731 40.4803 44.525 40.4045 44.5605 40.3212C44.5959 40.2378 44.6142 40.1484 44.6142 40.0581V34.9866C44.6139 34.6413 44.6834 34.2993 44.8187 33.9803C44.954 33.6612 45.1525 33.3714 45.4027 33.1273C45.653 32.8832 45.95 32.6897 46.277 32.5578C46.6039 32.426 46.9543 32.3584 47.308 32.3589Z" fill="#004a82"/>
</svg>