<svg width="50" height="46" viewBox="0 0 50 46" fill="none" xmlns="http://www.w3.org/2000/svg">
<path d="M13.169 35.312C12.337 34.736 11.921 33.936 11.921 32.912C11.921 32.08 12.209 31.376 12.785 30.8C13.393 30.224 14.113 29.936 14.945 29.936C15.457 29.936 15.985 30.112 16.529 30.464C18.705 31.904 21.041 32.624 23.537 32.624C25.425 32.624 26.897 32.256 27.953 31.52C29.041 30.752 29.585 29.744 29.585 28.496C29.585 27.184 29.057 26.224 28.001 25.616C26.977 25.008 25.361 24.704 23.153 24.704H21.809C20.977 24.704 20.273 24.416 19.697 23.84C19.121 23.264 18.833 22.56 18.833 21.728C18.833 20.928 19.121 20.256 19.697 19.712C20.273 19.136 20.961 18.848 21.761 18.848H23.153C25.009 18.848 26.449 18.544 27.473 17.936C28.529 17.328 29.057 16.448 29.057 15.296C29.057 14.08 28.513 13.136 27.425 12.464C26.337 11.792 24.897 11.456 23.105 11.456C20.801 11.456 18.657 12.128 16.673 13.472C16.225 13.792 15.713 13.952 15.137 13.952C14.369 13.952 13.697 13.68 13.121 13.136C12.577 12.56 12.305 11.888 12.305 11.12C12.305 10.224 12.689 9.472 13.457 8.864C16.305 6.624 19.761 5.504 23.825 5.504C27.569 5.504 30.513 6.288 32.657 7.856C34.833 9.424 35.921 11.536 35.921 14.192C35.921 16.144 35.233 17.76 33.857 19.04C32.449 20.352 30.801 21.168 28.913 21.488C30.865 21.712 32.593 22.512 34.097 23.888C35.633 25.264 36.401 27.024 36.401 29.168C36.401 31.92 35.233 34.176 32.897 35.936C30.593 37.696 27.553 38.576 23.777 38.576C19.553 38.576 16.017 37.488 13.169 35.312Z" fill="#004a82"/>
<path fill-rule="evenodd" clip-rule="evenodd" d="M0.204911 12.0226C0.069629 11.7038 0 11.3621 0 11.017V5.25551C0 3.86166 0.567225 2.5249 1.57689 1.5393C2.58656 0.553703 3.95596 0 5.38384 0H11.7475C12.4614 0 13.1461 0.276851 13.6509 0.769651C14.1558 1.26245 14.4394 1.93083 14.4394 2.62775C14.4394 3.32468 14.1558 3.99306 13.6509 4.48585C13.1461 4.97865 12.4614 5.25551 11.7475 5.25551H6.08677C5.90034 5.25551 5.72155 5.3278 5.58973 5.45648C5.4579 5.58516 5.38384 5.75969 5.38384 5.94167V11.017C5.38384 11.3621 5.31422 11.7038 5.17893 12.0226C5.04365 12.3414 4.84537 12.6311 4.5954 12.8751C4.34543 13.1191 4.04868 13.3127 3.72208 13.4447C3.39548 13.5768 3.04543 13.6448 2.69192 13.6448C2.33841 13.6448 1.98837 13.5768 1.66177 13.4447C1.33517 13.3127 1.03841 13.1191 0.788446 12.8751C0.538478 12.6311 0.340192 12.3414 0.204911 12.0226ZM49.7951 12.0226C49.9303 11.7038 50 11.3621 50 11.017H49.996V5.25551C49.9963 4.56543 49.8573 3.88207 49.5869 3.24445C49.3166 2.60684 48.9202 2.02746 48.4204 1.53942C47.9206 1.05137 47.3273 0.664226 46.6742 0.400089C46.0211 0.135951 45.3211 0 44.6142 0H38.2525C37.5386 0 36.8539 0.276851 36.349 0.769651C35.8442 1.26245 35.5606 1.93083 35.5606 2.62775C35.5606 3.32468 35.8442 3.99306 36.349 4.48585C36.8539 4.97865 37.5386 5.25551 38.2525 5.25551H43.9093C44.0017 5.25525 44.0934 5.27281 44.1789 5.30718C44.2644 5.34156 44.3421 5.39206 44.4076 5.4558C44.4731 5.51954 44.525 5.59527 44.5605 5.67864C44.5959 5.76202 44.6142 5.8514 44.6142 5.94167V11.017C44.6139 11.3623 44.6834 11.7043 44.8187 12.0233C44.954 12.3424 45.1525 12.6323 45.4027 12.8764C45.6529 13.1204 45.95 13.3139 46.277 13.4458C46.6039 13.5777 46.9543 13.6453 47.308 13.6448C47.6616 13.6448 48.0116 13.5768 48.3382 13.4447C48.6648 13.3127 48.9616 13.1191 49.2115 12.8751C49.4615 12.6311 49.6598 12.3414 49.7951 12.0226ZM0 34.9866C0 34.2897 0.283613 33.6213 0.788446 33.1285C1.29328 32.6357 1.97798 32.3589 2.69192 32.3589C3.04543 32.3589 3.39548 32.4268 3.72208 32.5589C4.04868 32.691 4.34543 32.8845 4.5954 33.1285C4.84537 33.3725 5.04365 33.6622 5.17893 33.981C5.31422 34.2998 5.38384 34.6415 5.38384 34.9866V40.0581C5.38384 40.2401 5.4579 40.4146 5.58973 40.5433C5.72155 40.672 5.90034 40.7443 6.08677 40.7443H11.7475C12.4614 40.7443 13.1461 41.0212 13.6509 41.514C14.1558 42.0068 14.4394 42.6751 14.4394 43.3721C14.4394 44.069 14.1558 44.7374 13.6509 45.2302C13.1461 45.723 12.4614 45.9998 11.7475 45.9998H5.38384C3.95596 45.9998 2.58656 45.4461 1.57689 44.4605C0.567225 43.4749 0 42.1382 0 40.7443V34.9943V34.9866ZM47.308 32.3589C48.022 32.3589 48.7067 32.6357 49.2115 33.1285C49.7164 33.6213 50 34.2897 50 34.9866L49.996 34.9943V40.7443C49.996 42.1378 49.4291 43.4743 48.4198 44.4598C47.4106 45.4454 46.0417 45.9993 44.6142 45.9998H38.2525C37.5386 45.9998 36.8539 45.7229 36.349 45.2302C35.8442 44.7374 35.5606 44.069 35.5606 43.3721C35.5606 42.6751 35.8442 42.0068 36.349 41.514C36.8539 41.0212 37.5386 40.7443 38.2525 40.7443H43.9093C44.0018 40.7446 44.0934 40.727 44.1789 40.6926C44.2644 40.6583 44.3421 40.6077 44.4076 40.544C44.4731 40.4803 44.525 40.4045 44.5605 40.3212C44.5959 40.2378 44.6142 40.1484 44.6142 40.0581V34.9866C44.6139 34.6413 44.6834 34.2993 44.8187 33.9803C44.954 33.6612 45.1525 33.3714 45.4027 33.1273C45.653 32.8832 45.95 32.6897 46.277 32.5578C46.6039 32.426 46.9543 32.3584 47.308 32.3589Z" fill="#004a82"/>
</svg>