<?xml version="1.0" encoding="utf-8"?>
<!-- Generator: Adobe Illustrator 17.0.0, SVG Export Plug-In . SVG Version: 6.00 Build 0)  -->
<!DOCTYPE svg PUBLIC "-//W3C//DTD SVG 1.1//EN" "http://www.w3.org/Graphics/SVG/1.1/DTD/svg11.dtd">
<svg version="1.1" xmlns="http://www.w3.org/2000/svg" xmlns:xlink="http://www.w3.org/1999/xlink" x="0px" y="0px"
	 width="841.89px" height="595.28px" viewBox="0 0 841.89 595.28" enable-background="new 0 0 841.89 595.28" xml:space="preserve">
<g id="Capa_3">
	<rect y="-0.002" fill="#004982" width="841.89" height="595.276"/>
</g>
<g id="Capa_2">
	<path fill="#FFFFFF" d="M265.337,348.366v20.664c0,2.95,0.483,5.106,1.447,6.466c1.438,1.972,3.461,2.957,6.072,2.957
		c2.62,0,4.653-0.985,6.091-2.957c0.963-1.317,1.447-3.472,1.447-6.466v-20.664h5.18v22.106c0,3.616-1.127,6.596-3.38,8.939
		c-2.536,2.608-5.648,3.914-9.338,3.914c-3.695,0-6.798-1.305-9.317-3.914c-2.253-2.342-3.381-5.323-3.381-8.939v-22.106H265.337z"
		/>
	<polygon fill="#FFFFFF" points="295.622,382.7 295.622,346.033 320.661,372.227 320.661,348.365 325.841,348.365 325.841,384.791 
		300.802,358.665 300.802,382.7 	"/>
	<rect x="335.892" y="348.365" fill="#FFFFFF" width="5.18" height="34.335"/>
	<polygon fill="#FFFFFF" points="352.88,348.366 362.376,372.16 372.002,348.366 377.674,348.366 362.264,385.28 347.21,348.366 	
		"/>
	<polygon fill="#FFFFFF" points="402.709,353.237 388.944,353.237 388.944,361.485 402.311,361.485 402.311,366.357 
		388.944,366.357 388.944,377.83 402.709,377.83 402.709,382.7 383.764,382.7 383.764,348.365 402.709,348.365 	"/>
	<path fill="#FFFFFF" d="M416.515,364.133h1.649c4.905,0,7.361-1.874,7.361-5.628c0-3.513-2.388-5.269-7.16-5.269h-1.849V364.133z
		 M422.965,368.069l10.629,14.63h-6.337l-9.807-14.053h-0.935v14.053h-5.18v-34.333h6.072c4.535,0,7.81,0.854,9.826,2.558
		c2.223,1.898,3.336,4.404,3.336,7.516c0,2.432-0.697,4.523-2.09,6.271C427.086,366.461,425.247,367.58,422.965,368.069"/>
	<path fill="#FFFFFF" d="M459.99,353.459l-4.203,2.491c-0.786-1.364-1.532-2.251-2.246-2.667c-0.741-0.477-1.697-0.712-2.868-0.712
		c-1.438,0-2.632,0.408-3.582,1.223c-0.948,0.803-1.421,1.81-1.421,3.028c0,1.676,1.243,3.026,3.737,4.05l3.423,1.401
		c2.785,1.128,4.825,2.504,6.115,4.129c1.29,1.623,1.933,3.617,1.933,5.975c0,3.159-1.052,5.771-3.157,7.834
		c-2.117,2.076-4.749,3.114-7.893,3.114c-2.981,0-5.441-0.886-7.384-2.659c-1.911-1.77-3.105-4.255-3.578-7.458l5.249-1.155
		c0.237,2.016,0.652,3.408,1.244,4.18c1.068,1.482,2.624,2.225,4.67,2.225c1.615,0,2.957-0.542,4.026-1.622
		c1.064-1.083,1.598-2.452,1.598-4.112c0-0.667-0.093-1.276-0.276-1.832c-0.185-0.556-0.473-1.068-0.869-1.536
		c-0.391-0.465-0.901-0.903-1.522-1.308c-0.621-0.408-1.366-0.797-2.223-1.167l-3.312-1.379c-4.7-1.984-7.052-4.887-7.052-8.708
		c0-2.58,0.987-4.734,2.96-6.466c1.97-1.75,4.424-2.624,7.361-2.624C454.675,347.7,457.767,349.619,459.99,353.459"/>
	<rect x="468.95" y="348.365" fill="#FFFFFF" width="5.18" height="34.335"/>
	<path fill="#FFFFFF" d="M489.383,377.83h2.336c2.326,0,4.262-0.244,5.801-0.733c1.543-0.519,2.937-1.342,4.181-2.469
		c2.551-2.327,3.824-5.36,3.824-9.093c0-3.767-1.26-6.82-3.779-9.164c-2.27-2.088-5.611-3.134-10.028-3.134h-2.336V377.83z
		 M484.203,382.7v-34.335h7.202c3.454,0,6.184,0.342,8.184,1.024c2.15,0.667,4.097,1.802,5.847,3.403
		c3.543,3.232,5.316,7.48,5.316,12.743c0,5.276-1.846,9.546-5.535,12.807c-1.856,1.632-3.796,2.767-5.828,3.403
		c-1.898,0.638-4.589,0.955-8.071,0.955H484.203z"/>
	<path fill="#FFFFFF" d="M535.456,369.491l-5.091-11.672l-5.338,11.672H535.456z M537.568,374.362H522.87l-3.826,8.337h-5.581
		l16.99-36.49l16.39,36.49h-5.67L537.568,374.362z"/>
	<path fill="#FFFFFF" d="M558.133,377.83h2.336c2.329,0,4.262-0.244,5.805-0.733c1.542-0.519,2.933-1.342,4.181-2.469
		c2.548-2.327,3.824-5.36,3.824-9.093c0-3.767-1.26-6.82-3.782-9.164c-2.267-2.088-5.611-3.134-10.028-3.134h-2.336V377.83z
		 M552.953,382.7v-34.335h7.206c3.454,0,6.18,0.342,8.184,1.024c2.147,0.667,4.097,1.802,5.847,3.403
		c3.543,3.232,5.316,7.48,5.316,12.743c0,5.276-1.849,9.546-5.539,12.807c-1.852,1.632-3.796,2.767-5.825,3.403
		c-1.898,0.638-4.589,0.955-8.071,0.955H552.953z"/>
	<path fill="#FFFFFF" d="M232.897,429.444h2.336c2.326,0,4.262-0.244,5.801-0.734c1.543-0.519,2.937-1.34,4.181-2.467
		c2.551-2.329,3.824-5.36,3.824-9.095c0-3.765-1.26-6.82-3.779-9.163c-2.27-2.09-5.611-3.134-10.028-3.134h-2.336V429.444z
		 M227.717,434.314V399.98h7.202c3.454,0,6.184,0.342,8.184,1.024c2.15,0.667,4.097,1.802,5.847,3.402
		c3.543,3.232,5.316,7.48,5.316,12.743c0,5.276-1.846,9.548-5.537,12.808c-1.854,1.63-3.794,2.765-5.827,3.403
		c-1.898,0.637-4.589,0.955-8.071,0.955H227.717z"/>
	<polygon fill="#FFFFFF" points="280.41,404.851 266.645,404.851 266.645,413.1 280.013,413.1 280.013,417.971 266.645,417.971 
		266.645,429.444 280.41,429.444 280.41,434.314 261.465,434.314 261.465,399.98 280.41,399.98 	"/>
	<polygon fill="#FFFFFF" points="307.818,399.98 307.818,429.445 317.911,429.445 317.911,434.315 302.638,434.315 302.638,399.98 	
		"/>
	<path fill="#FFFFFF" d="M343.477,421.105l-5.091-11.673l-5.335,11.673H343.477z M345.592,425.975h-14.699l-3.824,8.339h-5.582
		l16.988-36.492l16.39,36.492h-5.67L345.592,425.975z"/>
	<path fill="#FFFFFF" d="M343.477,421.105l-5.091-11.673l-5.335,11.673H343.477z M345.592,425.975h-14.699l-3.824,8.339h-5.582
		l16.988-36.492l16.39,36.492h-5.67L345.592,425.975z"/>
	<polygon fill="#FFFFFF" points="421.621,404.851 407.856,404.851 407.856,413.1 421.223,413.1 421.223,417.971 407.856,417.971 
		407.856,429.444 421.621,429.444 421.621,434.314 402.676,434.314 402.676,399.98 421.621,399.98 	"/>
	<path fill="#FFFFFF" d="M379.755,415.746h1.647c4.907,0,7.362-1.874,7.362-5.626c0-3.513-2.388-5.269-7.16-5.269h-1.849V415.746z
		 M386.205,419.683l10.629,14.63h-6.337l-9.807-14.053h-0.935v14.053h-5.18v-34.333h6.071c4.537,0,7.812,0.852,9.828,2.556
		c2.223,1.898,3.336,4.404,3.336,7.517c0,2.432-0.697,4.521-2.09,6.269C390.325,418.073,388.486,419.193,386.205,419.683"/>
	<path fill="#FFFFFF" d="M474.955,390.752l-9.072,6.136l-2.47-2.066l7.14-7.16L474.955,390.752z M459.569,399.98v20.664
		c0,2.949,0.48,5.106,1.443,6.466c1.438,1.97,3.464,2.955,6.072,2.955c2.624,0,4.655-0.985,6.094-2.955
		c0.963-1.317,1.443-3.472,1.443-6.466V399.98h5.182v22.104c0,3.617-1.125,6.598-3.378,8.94c-2.536,2.607-5.651,3.914-9.341,3.914
		c-3.691,0-6.798-1.307-9.317-3.914c-2.253-2.342-3.378-5.323-3.378-8.94V399.98H459.569z"/>
	<path fill="#FFFFFF" d="M493.896,429.444h3.2c2.346,0,4.063-0.46,5.161-1.379c1.157-0.994,1.733-2.253,1.733-3.779
		c0-1.484-0.556-2.728-1.667-3.737c-1.083-0.994-3.016-1.49-5.801-1.49h-2.625V429.444z M493.896,414.723h1.622
		c1.926,0,3.341-0.426,4.237-1.278c0.898-0.85,1.344-2.108,1.344-3.769c0-1.617-0.456-2.843-1.378-3.68
		c-0.918-0.839-2.253-1.256-4.003-1.256h-1.822V414.723z M488.716,434.314V399.98h5.158c2.299,0,4.127,0.178,5.491,0.534
		c1.378,0.357,2.543,0.957,3.493,1.802c0.962,0.876,1.728,1.964,2.29,3.269c0.578,1.32,0.867,2.656,0.867,4.003
		c0,2.46-0.943,4.543-2.824,6.249c1.822,0.621,3.258,1.711,4.314,3.269c1.066,1.543,1.598,3.334,1.598,5.38
		c0,2.684-0.946,4.953-2.844,6.805c-1.142,1.142-2.425,1.935-3.848,2.379c-1.556,0.429-3.506,0.645-5.848,0.645H488.716z"/>
	<polygon fill="#FFFFFF" points="521.507,399.98 521.507,429.445 531.601,429.445 531.601,434.315 516.327,434.315 516.327,399.98 	
		"/>
	<rect x="537.203" y="399.98" fill="#FFFFFF" width="5.18" height="34.335"/>
	<path fill="#FFFFFF" d="M576.687,401.816v6.126c-2.996-2.506-6.094-3.759-9.296-3.759c-3.528,0-6.502,1.266-8.915,3.802
		c-2.435,2.519-3.647,5.604-3.647,9.25c0,3.602,1.212,6.643,3.647,9.117c2.43,2.477,5.409,3.713,8.935,3.713
		c1.825,0,3.375-0.295,4.651-0.889c0.711-0.296,1.447-0.695,2.209-1.201c0.765-0.504,1.569-1.111,2.415-1.824v6.261
		c-2.967,1.682-6.078,2.524-9.341,2.524c-4.907,0-9.093-1.714-12.564-5.138c-3.454-3.454-5.18-7.618-5.18-12.497
		c0-4.373,1.443-8.272,4.335-11.697c3.56-4.195,8.164-6.293,13.81-6.293C570.83,399.313,573.809,400.148,576.687,401.816"/>
	<path fill="#FFFFFF" d="M597.694,409.432l5.092,11.673h-10.427L597.694,409.432z M580.795,434.315h5.582l3.824-8.341h14.698
		l3.602,8.341h5.672l-16.39-36.492L580.795,434.315z"/>
	<path fill="#FFFFFF" d="M434.289,415.568h1.937c4.757,0,7.138-1.829,7.138-5.491c0-3.545-2.454-5.315-7.361-5.315h-1.714V415.568z
		 M434.289,420.371v13.943h-5.18v-34.333h5.87c2.875,0,5.049,0.2,6.515,0.599c1.484,0.399,2.787,1.157,3.915,2.268
		c1.969,1.926,2.955,4.358,2.955,7.295c0,3.142-1.052,5.633-3.157,7.47c-2.105,1.839-4.942,2.757-8.514,2.757H434.289z"/>
	<path fill="#FFFFFF" d="M310.044,451.593v20.664c0,2.949,0.48,5.106,1.443,6.466c1.438,1.97,3.464,2.955,6.072,2.955
		c2.624,0,4.655-0.985,6.094-2.955c0.963-1.317,1.443-3.472,1.443-6.466v-20.664h5.182v22.104c0,3.617-1.125,6.598-3.378,8.94
		c-2.536,2.607-5.651,3.914-9.341,3.914c-3.691,0-6.798-1.307-9.317-3.914c-2.253-2.342-3.378-5.323-3.378-8.94v-22.104H310.044z"/>
	<path fill="#FFFFFF" d="M345.964,467.359h1.647c4.907,0,7.362-1.874,7.362-5.626c0-3.513-2.388-5.271-7.16-5.271h-1.849V467.359z
		 M352.413,471.296l10.629,14.63h-6.337l-9.807-14.053h-0.935v14.053h-5.18v-34.333h6.071c4.537,0,7.812,0.854,9.828,2.556
		c2.223,1.898,3.336,4.404,3.336,7.517c0,2.432-0.697,4.521-2.09,6.271C356.534,469.688,354.695,470.806,352.413,471.296"/>
	<path fill="#FFFFFF" d="M375.15,451.593v20.664c0,2.949,0.48,5.106,1.443,6.466c1.438,1.97,3.464,2.955,6.072,2.955
		c2.625,0,4.655-0.985,6.094-2.955c0.963-1.317,1.443-3.472,1.443-6.466v-20.664h5.182v22.104c0,3.617-1.125,6.598-3.378,8.94
		c-2.536,2.607-5.651,3.914-9.341,3.914c-3.69,0-6.798-1.307-9.317-3.914c-2.253-2.342-3.378-5.323-3.378-8.94v-22.104H375.15z"/>
	<path fill="#FFFFFF" d="M423.544,468.048h14.189v1.135c0,2.58-0.306,4.863-0.911,6.849c-0.596,1.839-1.596,3.558-3.003,5.16
		c-3.188,3.589-7.243,5.38-12.163,5.38c-4.804,0-8.92-1.734-12.344-5.203c-3.423-3.482-5.138-7.664-5.138-12.541
		c0-4.981,1.745-9.206,5.227-12.675c3.482-3.484,7.726-5.227,12.722-5.227c2.679,0,5.185,0.547,7.514,1.639
		c2.223,1.093,4.41,2.866,6.559,5.323l-3.691,3.535c-2.819-3.75-6.249-5.624-10.292-5.624c-3.636,0-6.68,1.253-9.141,3.757
		c-2.46,2.46-3.691,5.545-3.691,9.25c0,3.826,1.369,6.977,4.112,9.452c2.565,2.297,5.343,3.445,8.341,3.445
		c2.548,0,4.836-0.857,6.869-2.573c2.031-1.729,3.164-3.799,3.402-6.209h-8.561V468.048z"/>
	<path fill="#FFFFFF" d="M451.704,451.593v20.664c0,2.949,0.483,5.106,1.447,6.466c1.438,1.97,3.461,2.955,6.072,2.955
		c2.62,0,4.655-0.985,6.091-2.955c0.963-1.317,1.447-3.472,1.447-6.466v-20.664h5.182v22.104c0,3.617-1.128,6.598-3.381,8.94
		c-2.536,2.607-5.648,3.914-9.338,3.914c-3.695,0-6.798-1.307-9.317-3.914c-2.253-2.342-3.381-5.323-3.381-8.94v-22.104H451.704z"/>
	<path fill="#FFFFFF" d="M493.942,461.044l5.092,11.675h-10.427L493.942,461.044z M477.043,485.928h5.582l3.824-8.341h14.698
		l3.602,8.341h5.672l-16.39-36.492L477.043,485.928z"/>
	<polygon fill="#FFFFFF" points="531.398,451.594 523.527,465.313 515.674,451.594 509.717,451.594 520.925,471.094 
		520.925,485.928 526.105,485.928 526.105,471.094 537.357,451.594 	"/>
	<g>
		<path fill="#FFFFFF" d="M508.29,227.563h-25.564v-7.53h3.347v-3.763h-2.24c-1.064-1.254-2.28-2.378-3.615-3.342v-5.863h-6.706
			c-1.471,0.857-3.183,1.345-5.007,1.345c-1.825,0-3.537-0.488-5.01-1.345h-9.213v-2.51h6.274v-1.258h15.894v1.258h6.277v-4.604
			h-2.517c-0.296-10.665-11.886-19.241-26.138-19.241c-0.094,0-0.188,0.003-0.283,0.003c-0.115-0.003-0.231-0.003-0.343-0.003
			h-32.631h-32.627c-0.114,0-0.231,0-0.345,0.003c-0.094,0-0.188-0.003-0.283-0.003c-14.252,0-25.842,8.576-26.138,19.241h-2.515
			v0.421v4.183h6.274l-0.002-1.258h15.897v1.258h6.275v2.51h-2.509h-6.706c-1.472,0.857-3.183,1.345-5.008,1.345
			c-1.827,0-3.536-0.488-5.008-1.345h-6.703v5.863c-1.34,0.964-2.555,2.088-3.615,3.342h-2.243v3.763h3.348v7.53H333.34V111.269
			h174.95V227.563z M507.989,232.584h-25.263v-1.676h25.414C508.109,231.188,508.023,232.303,507.989,232.584 M506.638,240.111
			l-0.189,0.841h-22.468v2.93h21.746c-0.108,0.415-0.224,0.833-0.342,1.253h-21.405v23.845h-1.254v-23.845v-1.253v-2.099v-0.832
			v-0.841v-4.598h1.254h23.533C507.264,237.06,506.97,238.594,506.638,240.111 M499.042,261.304v-11.986h5.054
			C502.703,253.456,501.01,257.461,499.042,261.304 M495.693,267.247c-0.356,0.582-0.719,1.159-1.092,1.733h-6.436v-19.662h7.528
			V267.247z M361.417,266.466h5.437v0.838h-5.437V266.466z M387.769,218.779h-29.282v-1.673h0.248
			c3.453-4.096,8.619-6.695,14.393-6.695c5.773,0,10.938,2.599,14.393,6.695h0.248V218.779z M361.417,239.276h5.437v0.835h-5.437
			V239.276z M361.417,244.715h5.437v0.835h-5.437V244.715z M361.417,250.151h5.437v0.841h-5.437V250.151z M366.855,261.868h-5.437
			v-0.838h5.437V261.868z M361.417,255.591h5.437v0.838h-5.437V255.591z M377.311,267.304h-8.366v-22.587h8.366V267.304z
			 M378.147,232.584v3.763h-0.944c-0.911,1.267-2.396,2.091-4.075,2.091c-1.679,0-3.165-0.824-4.076-2.091h-0.944v-3.763h-6.69
			v-3.345h23.425v3.345H378.147z M379.403,239.276h5.439v0.835h-5.439V239.276z M379.403,244.715h5.439v0.835h-5.439V244.715z
			 M379.403,250.151h5.439v0.841h-5.439V250.151z M379.403,255.591h5.439v0.838h-5.439V255.591z M384.842,267.304h-5.439v-0.838
			h5.439V267.304z M379.403,261.03h5.439v0.838h-5.439V261.03z M392.79,245.55v-2.091h13.385v0.838v1.253H392.79z M395.301,247.225
			h8.364v21.753h-8.364V247.225z M406.175,272.743H392.79v-2.51h13.385V272.743z M427.02,240.952
			c0.313-0.777,0.488-1.623,0.488-2.514c0-0.728-0.118-1.431-0.334-2.091h2.01v4.604H427.02z M416.632,238.438
			c0-2.309,1.874-4.181,4.183-4.181c1.156,0,2.204,0.467,2.962,1.226c0.755,0.757,1.223,1.801,1.223,2.956
			c0,2.313-1.873,4.186-4.185,4.186C418.506,242.624,416.632,240.751,416.632,238.438 M420.815,245.55h-6.692v-2.091h2.267
			c1.18,1.043,2.73,1.676,4.425,1.676c1.698,0,3.247-0.633,4.426-1.676h2.267v2.091H420.815z M416.632,268.98v-21.754h4.183h4.185
			v21.754h-4.185H416.632z M414.123,270.233h6.692h6.693v2.51h-13.385V270.233z M414.611,240.952h-2.161v-4.604h2.006
			c-0.216,0.66-0.334,1.363-0.334,2.091C414.123,239.329,414.298,240.174,414.611,240.952 M435.456,243.459h13.385v2.091h-13.385
			V243.459z M437.966,247.225h8.367v21.753h-8.367V247.225z M448.841,272.743h-13.385v-2.51h13.385V272.743z M445.771,236.348h3.07
			v4.604h-3.344c-0.763,1.013-1.979,1.673-3.348,1.673c-1.369,0-2.582-0.66-3.347-1.673h-3.347v-4.604h3.072
			c0.176-0.307,0.391-0.583,0.636-0.835h-12.329c-1.084-2.229-3.372-3.766-6.019-3.766c-2.646,0-4.93,1.537-6.018,3.766h-12.328
			c0.243,0.251,0.458,0.528,0.634,0.835h3.072v4.604h-3.347c-0.763,1.013-1.978,1.673-3.347,1.673c-1.37,0-2.584-0.66-3.348-1.673
			h-3.344v-4.604h3.068c0.178-0.307,0.393-0.583,0.638-0.835h-8.309v-3.766h32.627h32.631v3.766h-8.309
			C445.382,235.764,445.595,236.041,445.771,236.348 M456.791,239.276h5.437v0.835h-5.437V239.276z M456.791,244.715h5.437v0.835
			h-5.437V244.715z M456.791,250.151h5.437v0.841h-5.437V250.151z M456.791,255.591h5.437v0.838h-5.437V255.591z M462.23,267.304
			h-5.437v-0.838h5.437V267.304z M456.791,261.03h5.437v0.838h-5.437V261.03z M472.686,267.304h-8.364v-22.587h8.364V267.304z
			 M473.524,232.584v3.763h-0.943c-0.914,1.267-2.399,2.091-4.076,2.091c-1.681,0-3.165-0.824-4.076-2.091h-0.944v-3.763h-6.693
			v-3.345h23.427v3.345H473.524z M474.777,239.276h5.439v0.835h-5.439V239.276z M474.777,244.715h5.439v0.835h-5.439V244.715z
			 M474.777,250.151h5.439v0.841h-5.439V250.151z M474.777,255.591h5.439v0.838h-5.439V255.591z M480.217,267.304h-5.439v-0.838
			h5.439V267.304z M474.777,261.03h5.439v0.838h-5.439V261.03z M453.862,218.779v-1.673h0.25c3.452-4.096,8.619-6.695,14.393-6.695
			c5.771,0,10.938,2.599,14.39,6.695h0.25v0.835v0.838H453.862z M456.791,222.125v-2.091h23.427v2.091v1.673v1.256h-26.772v2.93
			h-65.258v-2.93h-26.77v-1.256v-1.673v-2.091h23.425v2.091H456.791z M448.841,218.779h-56.053v-1.673h56.053V218.779z
			 M453.445,209.994v2.091h-4.604v2.094h-28.026H392.79v-2.094h-4.603v-2.091H453.445z M437.758,194.098
			c0-2.542,2.059-4.601,4.601-4.601c2.541,0,4.601,2.059,4.601,4.601c0,2.541-2.06,4.598-4.601,4.598
			C439.817,198.696,437.758,196.639,437.758,194.098 M416.214,194.098c0-2.542,2.06-4.601,4.601-4.601
			c2.542,0,4.601,2.059,4.601,4.601c0,2.541-2.059,4.598-4.601,4.598C418.274,198.696,416.214,196.639,416.214,194.098
			 M394.671,194.098c0-2.542,2.06-4.601,4.601-4.601s4.603,2.059,4.603,4.601c0,2.541-2.062,4.598-4.603,4.598
			S394.671,196.639,394.671,194.098 M420.815,204.555h32.631v2.471h-32.631h-32.627v-2.471H420.815z M489.836,275.668
			c-1.304,1.606-3.563,4.595-6.897,7.747c-1.003,1.056-1.735,1.679-2.377,2.296h-25.473v-2.514h0.027h27.61v-6.692h-27.61h-1.671
			v1.256h-65.258v-1.256h-1.673h-1.258h-26.351v6.692h27.608v0.42v2.094H361.04c-0.685-0.66-1.471-1.323-2.582-2.514h0.006
			c-3.208-3.07-5.396-5.959-6.67-7.53h0.03c-0.111-0.138-0.221-0.277-0.331-0.415h7.412v-2.51h27.608v0.525v0.731v0.417h1.673h0.418
			h63.166h3.345v-0.417v-0.347v-0.909h27.61v2.51h7.412c-0.111,0.138-0.221,0.277-0.329,0.415H489.836z M467.966,295.346h-12.876
			v-2.523h16.667C471.756,292.823,469.316,294.539,467.966,295.346 M452.19,292.823h-0.418h-0.836h-0.42h-0.417
			c0-3.809-2.676-6.986-6.248-7.768l0.56-2.512l0.167-0.757c5.072,1.116,8.868,5.631,8.868,11.037H452.19z M453.445,296.168h-2.51
			v-1.673h2.51V296.168z M453.445,299.931v1.254h-2.51v-1.254v-0.418h2.51V299.931z M448.841,304.569
			c-4.318,1.455-8.794,2.58-13.385,3.351v-15.097c0-3.7,2.997-6.695,6.693-6.695c3.698,0,6.692,2.995,6.692,6.695V304.569z
			 M440.141,280.689h2.008h2.008l-1.003,4.518l-1.005,0.504l-1.003-0.504L440.141,280.689z M433.784,292.823h-0.418h-0.836h-0.42
			h-1.254h-0.418h-0.836h-0.417h-0.42c0-3.809-2.676-6.986-6.245-7.768l0.556-2.512l0.169-0.757
			c3.848,0.849,6.962,3.652,8.239,7.313c1.277-3.661,4.39-6.464,8.239-7.313l0.169,0.757l0.556,2.512
			c-3.571,0.782-6.245,3.959-6.245,7.768H433.784z M433.365,296.168h-3.765v-1.673h3.765V296.168z M433.365,301.186h-3.765v-1.673
			h3.765V301.186z M433.365,306.625h-3.765v-1.673h3.765V306.625z M427.508,308.884c-2.207,0.169-4.441,0.25-6.693,0.25
			c-2.251,0-4.482-0.081-6.692-0.25v-16.061c0-3.7,2.995-6.695,6.692-6.695c3.698,0,6.693,2.995,6.693,6.695V308.884z
			 M418.808,280.689h2.006h2.01l-1.003,4.518l-1.006,0.504l-1.003-0.504L418.808,280.689z M412.452,292.823h-0.421h-0.836h-0.417
			h-1.258h-0.418h-0.835h-0.418h-0.42c0-3.809-2.674-6.986-6.245-7.768l0.558-2.512l0.167-0.757c3.848,0.849,6.962,3.652,8.24,7.313
			c1.277-3.661,4.39-6.464,8.237-7.313l0.169,0.76l0.002-0.003l0.56,2.512h-0.003c-3.572,0.782-6.245,3.959-6.245,7.768H412.452z
			 M412.031,296.168h-3.763v-1.673h3.763V296.168z M412.031,301.186h-3.763v-1.673h3.763V301.186z M409.94,302.653
			c0-0.116,0.092-0.211,0.21-0.211c0.114,0,0.207,0.095,0.207,0.211c0,0.115-0.092,0.207-0.207,0.207
			C410.032,302.86,409.94,302.768,409.94,302.653 M408.683,303.488c0-0.116,0.097-0.208,0.211-0.208
			c0.116,0,0.208,0.092,0.208,0.208c0,0.114-0.092,0.211-0.208,0.211C408.78,303.699,408.683,303.602,408.683,303.488
			 M412.031,306.625h-3.763v-1.673h3.763V306.625z M407.849,303.488c-0.116,0-0.21-0.092-0.21-0.208s0.094-0.211,0.21-0.211
			c0.115,0,0.207,0.095,0.207,0.211S407.964,303.488,407.849,303.488 M406.175,307.921c-4.593-0.771-9.065-1.897-13.385-3.351
			v-11.746c0-3.7,2.995-6.695,6.692-6.695s6.693,2.995,6.693,6.695V307.921z M397.474,280.689h2.008h2.008l-1.005,4.518
			l-1.003,0.504l-1.005-0.504L397.474,280.689z M391.116,292.823h-0.42h-0.836h-0.418h-1.254c0-5.406,3.795-9.921,8.865-11.037
			l0.363,1.638l0.184,0.814l0.18,0.817c-3.572,0.782-6.245,3.959-6.245,7.768H391.116z M390.696,296.168h-2.51v-1.673h2.51V296.168z
			 M390.696,299.931v1.254h-2.509v-1.254v-0.418h2.509V299.931z M386.515,295.346h-12.88c-1.347-0.808-3.792-2.523-3.792-2.523
			h16.671V295.346z M345.938,267.247v-17.929h7.53v19.662h-6.437C346.66,268.406,346.296,267.829,345.938,267.247 M342.591,261.304
			c-1.968-3.843-3.661-7.848-5.056-11.986h5.056V261.304z M335.903,243.882h21.746v-2.93h-22.467l-0.188-0.841
			c-0.332-1.517-0.626-3.051-0.878-4.598h23.532h1.258v4.598v0.841v0.832v2.099v1.253v23.845h-1.258v-23.845h-21.403
			C336.129,244.715,336.016,244.297,335.903,243.882 M333.493,230.909h25.414v1.676H333.69
			C333.656,232.303,333.521,231.188,333.493,230.909 M512.53,220.973l-0.056-113.886H329.159v115.66
			c0,0.812-0.043,1.405-0.092,1.943l0.191,0.138c1.671,49.148,42,88.491,91.558,88.491c50.196,0,90.942-40.362,91.618-90.394
			l0.143-0.056C512.552,222.223,512.53,221.584,512.53,220.973"/>
		<path fill="#FFFFFF" d="M450.516,174.017h-2.944v-2.943h2.944V174.017z M446.75,174.017h-2.943v-2.943h2.943V174.017z
			 M442.987,174.017h-2.943v-2.943h2.943V174.017z M439.222,174.017h-2.944v-2.943h2.944V174.017z M435.457,174.017h-2.943v-2.943
			h2.943V174.017z M431.694,174.017h-2.944v-2.943h2.944V174.017z M427.926,174.017h-2.943v-2.943h2.943V174.017z M424.163,174.017
			h-2.943v-2.943h2.943V174.017z M420.412,174.017h-2.944v-2.943h2.944V174.017z M416.646,174.017h-2.941v-2.943h2.941V174.017z
			 M412.883,174.017h-2.943v-2.943h2.943V174.017z M409.118,174.017h-2.941v-2.943h2.941V174.017z M405.351,174.017h-2.941v-2.943
			h2.941V174.017z M401.586,174.017h-2.943v-2.943h2.943V174.017z M397.822,174.017h-2.943v-2.943h2.943V174.017z M394.058,174.017
			h-2.941v-2.943h2.941V174.017z M453.445,175.69l-2.092-2.091v-6.693h-0.836v3.348h-29.702h-29.699v-3.348h-0.838v6.693
			l-2.091,2.091v2.51h65.258V175.69z"/>
		<path fill="#FFFFFF" d="M442.044,235.404c-1.677,0-3.037,1.359-3.037,3.035c0,1.679,1.359,3.033,3.037,3.033
			c1.676,0,3.035-1.355,3.035-3.033C445.079,236.763,443.72,235.404,442.044,235.404"/>
		<path fill="#FFFFFF" d="M399.481,241.473c1.677,0,3.037-1.356,3.037-3.035c0-1.676-1.359-3.033-3.037-3.033
			c-1.676,0-3.035,1.358-3.035,3.033C396.446,240.117,397.805,241.473,399.481,241.473"/>
		<path fill="#FFFFFF" d="M418.975,236.595l1.369,2.068c0.025,0.056,0.059,0.105,0.102,0.151c0.18,0.178,0.456,0.199,0.66,0.07
			c0.03-0.024,0.06-0.046,0.086-0.073c0.01-0.01,0.016-0.022,0.027-0.03l0.013-0.016c0.016-0.022,0.03-0.043,0.041-0.062
			l2.506-3.219l-2.979,2.318L418.975,236.595z"/>
	</g>
</g>
</svg>
